# xmcd CD database file
#
# Track frame offsets:
#	150
#	4687
#	26662
#	48032
#	52652
#	72782
#	98512
#	117457
#	126532
#	151105
#	181900
#
# Disc length: 2671 seconds
#
# Revision: 1
# Processed by: cddbd v1.4PL0 Copyright (c) Steve Scherf et al.
# Submitted via: CDex 1.50
#
DISCID=7e0a6d0b
DTITLE=Corciolli - Unio Celestia
DYEAR=1999
DGENRE=New Age
TTITLE0=In Principio
TTITLE1=Alarum
TTITLE2=Spiritus
TTITLE3=Trinum Perfectum
TTITLE4=Rubor
TTITLE5=Angelus
TTITLE6=Oratio
TTITLE7=Sanctus
TTITLE8=Gloriosa
TTITLE9=Toledo
TTITLE10=Ilusia
EXTD=YEAR: 1999
EXTT0=
EXTT1=
EXTT2=
EXTT3=
EXTT4=
EXTT5=
EXTT6=
EXTT7=
EXTT8=
EXTT9=
EXTT10=
PLAYORDER=
